<svg width="15" height="17" viewBox="0 0 15 17" fill="none" xmlns="http://www.w3.org/2000/svg">
<g filter="url(#filter0_d_102_2)">
<rect width="1440" height="4372" transform="translate(-120 -4312)" fill="#F4F5F7"/>
<rect x="-120" y="-261" width="1440" height="321" fill="white"/>
<path d="M7.5 1.625C8.99184 1.625 10.4226 2.21763 11.4775 3.27252C12.5324 4.32742 13.125 5.75816 13.125 7.25C13.125 9.57875 11.35 12.0187 7.875 14.625C7.76682 14.7061 7.63523 14.75 7.5 14.75C7.36477 14.75 7.23318 14.7061 7.125 14.625C3.65 12.0187 1.875 9.57875 1.875 7.25C1.875 5.75816 2.46763 4.32742 3.52252 3.27252C4.57742 2.21763 6.00816 1.625 7.5 1.625V1.625ZM7.5 5.375C7.00272 5.375 6.52581 5.57254 6.17417 5.92417C5.82254 6.27581 5.625 6.75272 5.625 7.25C5.625 7.74728 5.82254 8.22419 6.17417 8.57583C6.52581 8.92746 7.00272 9.125 7.5 9.125C7.99728 9.125 8.47419 8.92746 8.82583 8.57583C9.17746 8.22419 9.375 7.74728 9.375 7.25C9.375 6.75272 9.17746 6.27581 8.82583 5.92417C8.47419 5.57254 7.99728 5.375 7.5 5.375Z" fill="black"/>
</g>
<defs>
<filter id="filter0_d_102_2" x="-124" y="-4312" width="1448" height="4380" filterUnits="userSpaceOnUse" color-interpolation-filters="sRGB">
<feFlood flood-opacity="0" result="BackgroundImageFix"/>
<feColorMatrix in="SourceAlpha" type="matrix" values="0 0 0 0 0 0 0 0 0 0 0 0 0 0 0 0 0 0 127 0" result="hardAlpha"/>
<feOffset dy="4"/>
<feGaussianBlur stdDeviation="2"/>
<feComposite in2="hardAlpha" operator="out"/>
<feColorMatrix type="matrix" values="0 0 0 0 0 0 0 0 0 0 0 0 0 0 0 0 0 0 0.25 0"/>
<feBlend mode="normal" in2="BackgroundImageFix" result="effect1_dropShadow_102_2"/>
<feBlend mode="normal" in="SourceGraphic" in2="effect1_dropShadow_102_2" result="shape"/>
</filter>
</defs>
</svg>
