<svg width="230" height="25" viewBox="0 0 230 25" fill="none" xmlns="http://www.w3.org/2000/svg">
<path d="M12.664 2.544C14.056 1.32 14.848 0.635999 15.04 0.491998V8.34L14.716 8.232C14.38 6.12 13.504 4.356 12.088 2.94C10.672 1.5 9.06402 0.779999 7.26402 0.779999C6.01602 0.779999 4.93602 1.068 4.02402 1.644C2.89602 2.34 2.33202 3.36 2.33202 4.704C2.33202 6 2.94402 7.056 4.16802 7.872C5.20002 8.568 6.85602 9.18 9.13602 9.708C12.088 10.428 14.02 11.112 14.932 11.76C16.42 12.84 17.164 14.64 17.164 17.16C17.164 19.536 16.396 21.372 14.86 22.668C13.564 23.772 11.992 24.324 10.144 24.324C8.72802 24.324 7.45602 24.096 6.32802 23.64C5.22402 23.184 4.26402 22.428 3.44802 21.372C2.00802 23.268 1.25202 24.252 1.18002 24.324V14.388L1.50402 14.352C1.96002 16.416 2.47602 18.072 3.05202 19.32C3.53202 20.376 4.09602 21.252 4.74402 21.948C6.01602 23.316 7.86402 24 10.288 24C11.416 24 12.448 23.628 13.384 22.884C14.464 22.02 15.004 20.94 15.004 19.644C15.004 18.06 14.272 16.812 12.808 15.9C11.8 15.276 10.036 14.628 7.51602 13.956C5.02002 13.26 3.28002 12.552 2.29602 11.832C0.856016 10.752 0.136016 9.18 0.136016 7.116C0.136016 5.268 0.784016 3.708 2.08002 2.436C3.40002 1.14 4.96002 0.491998 6.76002 0.491998C8.29602 0.491998 9.55602 0.719999 10.54 1.176C10.852 1.32 11.56 1.776 12.664 2.544ZM40.0732 17.088C40.0732 19.68 39.1252 21.636 37.2292 22.956C35.9092 23.868 34.5292 24.324 33.0892 24.324C30.3772 24.324 28.1092 23.76 26.2852 22.632C24.2692 21.384 23.2612 19.656 23.2612 17.448V3.156C23.2612 2.484 23.2132 2.052 23.1172 1.86C23.0692 1.764 22.9252 1.668 22.6852 1.572C21.9172 1.284 20.5972 1.14 18.7252 1.14V0.779999H32.6212V1.14C31.5172 1.14 30.6172 1.176 29.9212 1.248C29.2492 1.32 28.7572 1.416 28.4452 1.536C28.1332 1.656 27.9532 1.764 27.9052 1.86C27.7852 2.076 27.7252 2.508 27.7252 3.156V16.728C27.7252 19.128 28.0852 20.844 28.8052 21.876C29.6692 23.124 31.2292 23.748 33.4852 23.748C34.7332 23.748 35.9452 23.304 37.1212 22.416C38.7772 21.168 39.6052 19.392 39.6052 17.088V7.692C39.6052 5.22 39.2212 3.516 38.4532 2.58C37.6852 1.62 36.4252 1.14 34.6732 1.14V0.779999H44.3212V1.14C42.5212 1.14 41.3212 1.644 40.7212 2.652C40.2892 3.372 40.0732 4.584 40.0732 6.288V17.088ZM53.8289 0.779999L59.9129 17.556L64.9529 0.779999H74.9249V1.14C72.7409 1.14 71.3009 1.284 70.6049 1.572C70.3649 1.668 70.2209 1.764 70.1729 1.86C70.0529 2.076 69.9929 2.508 69.9929 3.156V21.588C69.9929 22.308 70.0409 22.752 70.1369 22.92C70.1849 23.016 70.3529 23.124 70.6409 23.244C70.9529 23.34 71.4809 23.424 72.2249 23.496C72.9689 23.568 73.8689 23.604 74.9249 23.604V24H61.0649V23.604C61.9289 23.604 62.7209 23.568 63.4409 23.496C64.1849 23.424 64.6889 23.34 64.9529 23.244C65.2409 23.124 65.4089 23.016 65.4569 22.92C65.5529 22.728 65.6009 22.284 65.6009 21.588L65.5649 2.004C65.5649 1.596 65.5169 1.392 65.4209 1.392C65.3249 1.392 65.2169 1.572 65.0969 1.932L58.5089 24H57.7169L49.9409 1.896L49.6529 1.356C49.5809 1.356 49.5449 1.56 49.5449 1.968V17.052C49.5449 19.716 49.8929 21.48 50.5889 22.344C51.3089 23.184 52.6529 23.604 54.6209 23.604V24H44.4329V23.604C46.1129 23.604 47.3009 23.172 47.9969 22.308C48.6929 21.444 49.0409 19.98 49.0409 17.916V6.792C49.0409 4.68 48.7169 3.216 48.0689 2.4C47.4209 1.56 46.2089 1.14 44.4329 1.14V0.743999L53.8289 0.779999ZM84.6961 0.779999L90.7801 17.556L95.8201 0.779999H105.792V1.14C103.608 1.14 102.168 1.284 101.472 1.572C101.232 1.668 101.088 1.764 101.04 1.86C100.92 2.076 100.86 2.508 100.86 3.156V21.588C100.86 22.308 100.908 22.752 101.004 22.92C101.052 23.016 101.22 23.124 101.508 23.244C101.82 23.34 102.348 23.424 103.092 23.496C103.836 23.568 104.736 23.604 105.792 23.604V24H91.9321V23.604C92.7961 23.604 93.5881 23.568 94.3081 23.496C95.0521 23.424 95.5561 23.34 95.8201 23.244C96.1081 23.124 96.2761 23.016 96.3241 22.92C96.4201 22.728 96.4681 22.284 96.4681 21.588L96.4321 2.004C96.4321 1.596 96.3841 1.392 96.2881 1.392C96.1921 1.392 96.0841 1.572 95.9641 1.932L89.3761 24H88.5841L80.8081 1.896L80.5201 1.356C80.4481 1.356 80.4121 1.56 80.4121 1.968V17.052C80.4121 19.716 80.7601 21.48 81.4561 22.344C82.1761 23.184 83.5201 23.604 85.4881 23.604V24H75.3001V23.604C76.9801 23.604 78.1681 23.172 78.8641 22.308C79.5601 21.444 79.9081 19.98 79.9081 17.916V6.792C79.9081 4.68 79.5841 3.216 78.9361 2.4C78.2881 1.56 77.0761 1.14 75.3001 1.14V0.743999L84.6961 0.779999ZM115.455 11.94V21.552C115.455 22.224 115.491 22.644 115.563 22.812C115.635 22.98 115.863 23.136 116.247 23.28C116.631 23.4 117.075 23.472 117.579 23.496C118.083 23.52 118.983 23.532 120.279 23.532C123.015 23.532 125.079 22.728 126.471 21.12C127.887 19.488 128.775 16.884 129.135 13.308H129.567V24H106.167V23.604C108.303 23.604 109.719 23.472 110.415 23.208C110.655 23.112 110.811 22.992 110.883 22.848C110.979 22.68 111.027 22.26 111.027 21.588V3.156C111.027 2.46 110.979 2.028 110.883 1.86C110.835 1.764 110.679 1.668 110.415 1.572C110.151 1.476 109.611 1.38 108.795 1.284C107.979 1.188 107.103 1.14 106.167 1.14V0.779999H128.379V9.78H127.947C127.947 7.932 127.479 6.168 126.543 4.488C125.295 2.256 123.531 1.14 121.251 1.14C120.339 1.14 119.415 1.152 118.479 1.176C117.567 1.176 116.751 1.284 116.031 1.5C115.815 1.596 115.659 1.728 115.563 1.896C115.491 2.04 115.455 2.46 115.455 3.156V11.544C117.951 11.544 119.499 11.292 120.099 10.788C121.011 10.02 121.647 7.956 122.007 4.596H122.403V18.816H122.007C121.647 15.528 121.023 13.5 120.135 12.732C119.511 12.204 117.951 11.94 115.455 11.94ZM140.775 11.508H144.123C145.875 11.508 147.171 11.184 148.011 10.536C149.019 9.768 149.523 8.472 149.523 6.648C149.523 4.632 149.103 3.216 148.263 2.4C147.447 1.56 146.079 1.14 144.159 1.14H142.431C141.927 1.14 141.555 1.176 141.315 1.248C141.075 1.32 140.919 1.476 140.847 1.716C140.799 1.932 140.775 2.388 140.775 3.084V11.508ZM155.355 18.816V20.004C155.355 21.42 155.223 22.404 154.959 22.956C154.527 23.868 153.675 24.324 152.403 24.324C150.747 24.324 149.655 23.7 149.127 22.452C148.695 21.444 148.479 19.524 148.479 16.692V15.936C148.479 15.696 148.491 15.444 148.515 15.18C148.515 13.908 148.215 13.056 147.615 12.624C147.015 12.168 146.151 11.94 145.023 11.94H140.775V21.588C140.775 22.308 140.811 22.764 140.883 22.956C140.979 23.148 141.159 23.304 141.423 23.424C141.711 23.52 142.275 23.58 143.115 23.604C143.979 23.628 144.879 23.64 145.815 23.64V24H131.163V23.604C133.683 23.604 135.195 23.508 135.699 23.316C135.939 23.22 136.107 23.088 136.203 22.92C136.299 22.728 136.347 22.284 136.347 21.588V3.084C136.347 2.412 136.299 1.992 136.203 1.824C136.155 1.728 135.999 1.632 135.735 1.536C135.039 1.272 133.515 1.14 131.163 1.14V0.779999H145.887C148.479 0.779999 150.543 1.476 152.079 2.868C153.303 3.972 153.915 5.112 153.915 6.288C153.915 7.68 153.435 8.82 152.475 9.708C151.323 10.788 149.499 11.472 147.003 11.76C149.547 12.264 151.227 13.692 152.043 16.044C152.451 17.22 152.655 18.996 152.655 21.372C152.655 22.068 152.715 22.572 152.835 22.884C152.955 23.196 153.243 23.352 153.699 23.352C154.203 23.352 154.551 22.956 154.743 22.164C154.935 21.348 155.031 20.232 155.031 18.816H155.355ZM178.917 16.296V17.772C178.917 18.732 178.869 19.584 178.773 20.328C178.701 21.048 178.521 21.672 178.233 22.2C177.849 22.92 177.381 23.46 176.829 23.82C176.301 24.156 175.725 24.324 175.101 24.324C174.357 24.324 173.661 24.12 173.013 23.712C172.365 23.304 171.813 22.752 171.357 22.056C170.709 21.048 170.253 20.436 169.989 20.22C169.653 19.932 169.137 19.788 168.441 19.788C168.057 19.788 167.697 20.064 167.361 20.616C166.929 21.336 166.713 22.344 166.713 23.64H166.065C166.065 20.544 166.749 18.216 168.117 16.656C168.861 15.792 170.109 14.988 171.861 14.244C173.085 13.716 173.997 12.852 174.597 11.652C175.197 10.452 175.497 9.072 175.497 7.512C175.497 6.144 175.245 4.776 174.741 3.408C174.333 2.304 173.865 1.584 173.337 1.248C172.953 1.008 172.389 0.887999 171.645 0.887999C170.205 0.887999 169.005 1.656 168.045 3.192C167.205 4.536 166.785 5.928 166.785 7.368C166.785 7.656 166.797 7.86 166.821 7.98C166.941 7.644 167.097 7.392 167.289 7.224C167.505 7.056 167.757 6.972 168.045 6.972C168.405 6.972 168.729 7.116 169.017 7.404C169.305 7.668 169.509 8.076 169.629 8.628C169.677 8.796 169.701 9.024 169.701 9.312C169.701 9.96 169.521 10.512 169.161 10.968C168.801 11.424 168.357 11.652 167.829 11.652C167.565 11.652 167.337 11.604 167.145 11.508C166.713 11.292 166.377 10.896 166.137 10.32C165.921 9.744 165.813 9.048 165.813 8.232C165.813 6.36 166.329 4.668 167.361 3.156C168.585 1.38 170.205 0.491998 172.221 0.491998C174.813 0.491998 176.745 1.5 178.017 3.516C178.953 5.004 179.421 6.732 179.421 8.7C179.421 10.284 179.085 11.496 178.413 12.336C177.669 13.272 176.421 13.932 174.669 14.316C171.981 14.916 170.169 15.588 169.233 16.332C168.297 17.076 167.637 18.108 167.253 19.428C167.445 19.26 167.733 19.176 168.117 19.176C168.285 19.176 169.569 19.476 171.969 20.076C173.121 20.364 174.117 20.508 174.957 20.508C175.125 20.508 175.305 20.508 175.497 20.508C175.713 20.484 176.001 20.436 176.361 20.364C177.177 20.196 177.741 19.812 178.053 19.212C178.269 18.78 178.377 18.156 178.377 17.34C178.353 16.836 178.341 16.464 178.341 16.224L178.917 16.296ZM188.893 24.324C186.901 24.324 185.161 23.256 183.673 21.12C182.065 18.816 181.261 15.912 181.261 12.408C181.261 8.904 182.053 6.012 183.637 3.732C185.125 1.572 186.877 0.491998 188.893 0.491998C190.909 0.491998 192.661 1.56 194.149 3.696C195.757 6 196.561 8.904 196.561 12.408C196.561 15.912 195.781 18.78 194.221 21.012C192.685 23.22 190.909 24.324 188.893 24.324ZM188.893 24C189.853 24 190.573 23.028 191.053 21.084C191.533 19.14 191.773 16.236 191.773 12.372C191.773 8.652 191.737 6.336 191.665 5.424C191.425 2.328 190.501 0.779999 188.893 0.779999C187.957 0.779999 187.249 1.752 186.769 3.696C186.289 5.616 186.049 8.508 186.049 12.372C186.049 16.116 186.085 18.444 186.157 19.356C186.397 22.452 187.309 24 188.893 24ZM211.613 16.296V17.772C211.613 18.732 211.565 19.584 211.469 20.328C211.397 21.048 211.217 21.672 210.929 22.2C210.545 22.92 210.077 23.46 209.525 23.82C208.997 24.156 208.421 24.324 207.797 24.324C207.053 24.324 206.357 24.12 205.709 23.712C205.061 23.304 204.509 22.752 204.053 22.056C203.405 21.048 202.949 20.436 202.685 20.22C202.349 19.932 201.833 19.788 201.137 19.788C200.753 19.788 200.393 20.064 200.057 20.616C199.625 21.336 199.409 22.344 199.409 23.64H198.761C198.761 20.544 199.445 18.216 200.813 16.656C201.557 15.792 202.805 14.988 204.557 14.244C205.781 13.716 206.693 12.852 207.293 11.652C207.893 10.452 208.193 9.072 208.193 7.512C208.193 6.144 207.941 4.776 207.437 3.408C207.029 2.304 206.561 1.584 206.033 1.248C205.649 1.008 205.085 0.887999 204.341 0.887999C202.901 0.887999 201.701 1.656 200.741 3.192C199.901 4.536 199.481 5.928 199.481 7.368C199.481 7.656 199.493 7.86 199.517 7.98C199.637 7.644 199.793 7.392 199.985 7.224C200.201 7.056 200.453 6.972 200.741 6.972C201.101 6.972 201.425 7.116 201.713 7.404C202.001 7.668 202.205 8.076 202.325 8.628C202.373 8.796 202.397 9.024 202.397 9.312C202.397 9.96 202.217 10.512 201.857 10.968C201.497 11.424 201.053 11.652 200.525 11.652C200.261 11.652 200.033 11.604 199.841 11.508C199.409 11.292 199.073 10.896 198.833 10.32C198.617 9.744 198.509 9.048 198.509 8.232C198.509 6.36 199.025 4.668 200.057 3.156C201.281 1.38 202.901 0.491998 204.917 0.491998C207.509 0.491998 209.441 1.5 210.713 3.516C211.649 5.004 212.117 6.732 212.117 8.7C212.117 10.284 211.781 11.496 211.109 12.336C210.365 13.272 209.117 13.932 207.365 14.316C204.677 14.916 202.865 15.588 201.929 16.332C200.993 17.076 200.333 18.108 199.949 19.428C200.141 19.26 200.429 19.176 200.813 19.176C200.981 19.176 202.265 19.476 204.665 20.076C205.817 20.364 206.813 20.508 207.653 20.508C207.821 20.508 208.001 20.508 208.193 20.508C208.409 20.484 208.697 20.436 209.057 20.364C209.873 20.196 210.437 19.812 210.749 19.212C210.965 18.78 211.073 18.156 211.073 17.34C211.049 16.836 211.037 16.464 211.037 16.224L211.613 16.296ZM215.288 2.544C218.192 2.544 220.172 2.412 221.228 2.148C222.284 1.86 223.256 1.308 224.144 0.491998H224.612V21.624C224.612 22.32 224.66 22.764 224.756 22.956C224.804 23.052 224.96 23.16 225.224 23.28C225.512 23.376 226.004 23.46 226.7 23.532C227.42 23.604 228.212 23.64 229.076 23.64V24H215.288V23.64C216.32 23.64 217.208 23.604 217.952 23.532C218.72 23.46 219.236 23.376 219.5 23.28C219.788 23.16 219.968 23.028 220.04 22.884C220.136 22.716 220.184 22.296 220.184 21.624V4.92C220.184 4.272 220.112 3.864 219.968 3.696C219.848 3.504 219.644 3.36 219.356 3.264C219.068 3.144 218.636 3.072 218.06 3.048C217.484 3 216.56 2.976 215.288 2.976V2.544Z" fill="black"/>
</svg>
