<svg width="213" height="17" viewBox="0 0 213 17" fill="none" xmlns="http://www.w3.org/2000/svg">
<path d="M9.575 17H0.270317V0.195312H3.05938V14.6445H9.575V17ZM34.85 17H31.7914L30.2797 12.7227H23.6703L22.2172 17H19.1703L25.4633 0.195312H28.6039L34.85 17ZM29.5414 10.4492L27.2094 3.74609C27.1391 3.52734 27.0648 3.17578 26.9867 2.69141H26.9398C26.8695 3.13672 26.7914 3.48828 26.7055 3.74609L24.3969 10.4492H29.5414ZM63.357 10.9062V17H60.5797V0.195312H65.6773C67.607 0.195312 69.1031 0.644531 70.1656 1.54297C71.2281 2.44141 71.7594 3.70703 71.7594 5.33984C71.7594 6.97266 71.2047 8.30859 70.0953 9.34766C68.9859 10.3867 67.4859 10.9062 65.5953 10.9062H63.357ZM63.357 2.49219V8.63281H65.1617C66.357 8.63281 67.2672 8.35547 67.8922 7.80078C68.5172 7.24609 68.8297 6.46484 68.8297 5.45703C68.8297 3.48047 67.6813 2.49219 65.3844 2.49219H63.357ZM96.0031 17H92.7453L90.0617 12.5C89.8195 12.0859 89.5813 11.7344 89.3469 11.4453C89.1203 11.1484 88.8859 10.9062 88.6438 10.7188C88.4094 10.5312 88.1516 10.3945 87.8703 10.3086C87.5891 10.2227 87.2727 10.1797 86.9211 10.1797H85.7961V17H83.0188V0.195312H88.55C89.3391 0.195312 90.0656 0.289062 90.7297 0.476562C91.3938 0.664062 91.9719 0.949219 92.4641 1.33203C92.9563 1.70703 93.3391 2.17969 93.6125 2.75C93.8938 3.3125 94.0344 3.97266 94.0344 4.73047C94.0344 5.32422 93.9445 5.87109 93.7648 6.37109C93.593 6.86328 93.343 7.30469 93.0148 7.69531C92.6945 8.07812 92.3039 8.40625 91.843 8.67969C91.3898 8.95312 90.8781 9.16406 90.3078 9.3125V9.35938C90.6125 9.53125 90.8781 9.72266 91.1047 9.93359C91.3313 10.1367 91.5461 10.3477 91.7492 10.5664C91.9523 10.7852 92.1516 11.0352 92.3469 11.3164C92.55 11.5898 92.7727 11.9102 93.0148 12.2773L96.0031 17ZM85.7961 2.45703V7.91797H88.1164C88.5461 7.91797 88.9406 7.85156 89.3 7.71875C89.6672 7.58594 89.9836 7.39453 90.2492 7.14453C90.5148 6.89453 90.7219 6.58984 90.8703 6.23047C91.0188 5.87109 91.093 5.46875 91.093 5.02344C91.093 4.21875 90.8391 3.58984 90.3313 3.13672C89.8234 2.68359 89.093 2.45703 88.1398 2.45703H85.7961ZM120.177 17H117.118L115.606 12.7227H108.997L107.544 17H104.497L110.79 0.195312H113.93L120.177 17ZM114.868 10.4492L112.536 3.74609C112.466 3.52734 112.391 3.17578 112.313 2.69141H112.266C112.196 3.13672 112.118 3.48828 112.032 3.74609L109.723 10.4492H114.868ZM130.897 17V0.195312H135.748C141.944 0.195312 145.041 2.92578 145.041 8.38672C145.041 10.9805 144.182 13.0664 142.463 14.6445C140.745 16.2148 138.44 17 135.549 17H130.897ZM133.674 2.5625V14.6445H135.901C137.862 14.6445 139.385 14.1055 140.471 13.0273C141.565 11.9492 142.112 10.4258 142.112 8.45703C142.112 4.52734 140.077 2.5625 136.006 2.5625H133.674ZM159.383 17H156.512V0.195312H159.383V17ZM186.181 17H183.134L175.107 4.64844C174.904 4.33594 174.736 4.01172 174.603 3.67578H174.533C174.595 4.03516 174.627 4.80469 174.627 5.98438V17H171.931V0.195312H175.177L182.935 12.2539C183.263 12.7539 183.474 13.0977 183.568 13.2852H183.615C183.537 12.8398 183.498 12.0859 183.498 11.0234V0.195312H186.181V17ZM212.558 17H209.499L207.987 12.7227H201.378L199.925 17H196.878L203.171 0.195312H206.312L212.558 17ZM207.249 10.4492L204.917 3.74609C204.847 3.52734 204.773 3.17578 204.695 2.69141H204.648C204.577 3.13672 204.499 3.48828 204.413 3.74609L202.105 10.4492H207.249Z" fill="white"/>
</svg>
